<svg xmlns="http://www.w3.org/2000/svg" viewBox="0 0 500 500"><g id="freepik--background-simple--inject-96"><path d="M232.34,111.65c-38.57-2.25-78.93-25-116.76-3.06C87.19,125.06,83,157.38,91.35,187.65c21.84,79.51,144.13,93,213,73C375.75,240,456.28,169.29,410.12,97.34c-19-29.65-52.17-34.88-88.34-25C291.05,80.64,262.57,113.41,232.34,111.65Z" style="fill:#407BFF"></path><path d="M232.34,111.65c-38.57-2.25-78.93-25-116.76-3.06C87.19,125.06,83,157.38,91.35,187.65c21.84,79.51,144.13,93,213,73C375.75,240,456.28,169.29,410.12,97.34c-19-29.65-52.17-34.88-88.34-25C291.05,80.64,262.57,113.41,232.34,111.65Z" style="fill:#fff;opacity:0.9"></path></g><g id="freepik--Shadow--inject-96"><ellipse id="freepik--path--inject-96" cx="250" cy="416.24" rx="193.89" ry="11.32" style="fill:#f5f5f5"></ellipse></g><g id="freepik--character-2--inject-96"><path d="M348.15,115.36c-2.13-2.13-6.23-10.2-2.3-14s7.43-.35,7.7,1.5S353.1,120.3,348.15,115.36Z" style="fill:#263238"></path><polygon points="347.25 405.65 338.32 405.73 335.89 385.09 344.81 385.01 347.25 405.65" style="fill:#ff8b7b"></polygon><path d="M338.31,404.7l9.74-.09a.85.85,0,0,1,.8.6l2.36,7.91a1.21,1.21,0,0,1-1.17,1.6c-3.51,0-8.61-.19-13-.15-5.16,0-7.46.36-13.52.42-3.66,0-5-3.66-3.45-4,6.87-1.59,10.42-1.8,16.17-5.57A3.83,3.83,0,0,1,338.31,404.7Z" style="fill:#263238"></path><polygon points="335.89 385.1 337.15 395.74 346.07 395.66 344.82 385.02 335.89 385.1" style="opacity:0.2"></polygon><path d="M334.62,406.29a13.89,13.89,0,0,0,2.86-.35.2.2,0,0,0,.17-.18.21.21,0,0,0-.12-.21c-.42-.21-4.17-2-5.2-1.37a.65.65,0,0,0-.3.57,1.25,1.25,0,0,0,.48,1A3.41,3.41,0,0,0,334.62,406.29Zm2.14-.64c-1.93.34-3.4.27-4-.21a.81.81,0,0,1-.31-.69.21.21,0,0,1,.1-.21C333.11,404.2,335.23,405,336.76,405.65Z" style="fill:#407BFF"></path><path d="M337.44,406a.24.24,0,0,0,.13-.05.19.19,0,0,0,.07-.2c0-.16-.7-4-2.82-3.76-.56.06-.72.35-.75.57-.15,1,2.14,2.94,3.28,3.42Zm-2.44-3.6c1.28,0,1.92,2.09,2.14,3-1.18-.66-2.74-2.18-2.65-2.78,0,0,0-.17.38-.21Z" style="fill:#407BFF"></path><path d="M340.94,160.43l-.92,1-.86.85c-.57.56-1.16,1.09-1.75,1.61q-1.76,1.58-3.6,3a70,70,0,0,1-7.8,5.38c-1.37.81-2.78,1.58-4.21,2.31s-2.94,1.36-4.46,2a44.75,44.75,0,0,1-9.68,2.65l-.74.11a11,11,0,0,1-1.45.09,9,9,0,0,1-3.25-.64,8.85,8.85,0,0,1-2.77-1.77,10.13,10.13,0,0,1-1.66-2.06,13.57,13.57,0,0,1-1.43-3.51,21.61,21.61,0,0,1-.53-2.9,32.76,32.76,0,0,1-.15-5.09c.07-1.62.2-3.18.38-4.71.38-3.07.92-6,1.58-9s1.41-5.77,2.38-8.67l6.57,1.3c-.24,5.62-.51,11.38-.33,16.82a40.71,40.71,0,0,0,.8,7.52,8.3,8.3,0,0,0,.41,1.34c.14.34.31.55.3.46a1.06,1.06,0,0,0-.27-.4,3.05,3.05,0,0,0-.94-.62,3.57,3.57,0,0,0-1.13-.27c-.18,0-.26,0-.37,0l.11,0,.21-.06a37.75,37.75,0,0,0,6.88-2.5,59.41,59.41,0,0,0,6.69-3.78c2.17-1.44,4.31-3,6.37-4.65,1-.82,2.05-1.68,3-2.55l1.46-1.32.7-.65.61-.58Z" style="fill:#ff8b7b"></path><path d="M346.23,156.9c-.34-9.43-8.08-12.71-17.78-6.28a132.1,132.1,0,0,0-12.33,8.85l6.27,20.14s12-3.81,18.94-11.29C346,163.24,346.35,160.11,346.23,156.9Z" style="fill:#263238"></path><path d="M334.42,160.92s-5.79,8.28-7.84,17.08a56.71,56.71,0,0,0,8.2-4.32Z" style="opacity:0.2"></path><path d="M306.26,145.37l3.36-7.59L300.11,135s-1.63,3.63-.7,9.86Z" style="fill:#ff8b7b"></path><polygon points="310.63 128.88 302.36 129.87 300.11 135 309.62 137.78 310.63 128.88" style="fill:#ff8b7b"></polygon><path d="M334.48,225.26s-6.14,51.46-6.82,79c-.7,28.61,4.91,86.32,4.91,86.32l16.11-.34s1.94-61.78,4.28-90.09c2.54-30.86,8.94-75.45,8.94-75.45Z" style="fill:#407BFF"></path><path d="M334.48,225.26s-6.14,51.46-6.82,79c-.7,28.61,4.91,86.32,4.91,86.32l16.11-.34s1.94-61.78,4.28-90.09c2.54-30.86,8.94-75.45,8.94-75.45Z" style="fill:#fff;opacity:0.6000000000000001"></path><path d="M353.67,239.83c-7.2,15.87-5.27,51.32-1.18,66.52.15-2.21.31-4.3.47-6.23,1.67-20.34,5-46.63,7.11-62.2C358.11,235.08,355.92,234.86,353.67,239.83Z" style="opacity:0.2"></path><polygon points="350.66 390.93 331.72 391.31 330.32 385.02 350.43 384.97 350.66 390.93" style="fill:#407BFF"></polygon><polygon points="387.04 405.65 378.12 405.73 375.69 385.09 384.61 385.01 387.04 405.65" style="fill:#ff8b7b"></polygon><path d="M378.1,404.7l9.75-.09a.86.86,0,0,1,.8.6l2.36,7.91a1.22,1.22,0,0,1-1.17,1.6c-3.52,0-8.61-.19-13-.15-5.16,0-7.47.36-13.52.42-3.66,0-5-3.66-3.45-4,6.86-1.59,10.41-1.8,16.17-5.57A3.8,3.8,0,0,1,378.1,404.7Z" style="fill:#263238"></path><polygon points="375.69 385.1 376.94 395.74 385.87 395.66 384.62 385.02 375.69 385.1" style="opacity:0.2"></polygon><path d="M374.42,406.29a14.07,14.07,0,0,0,2.86-.35.19.19,0,0,0,.16-.18.2.2,0,0,0-.11-.21c-.43-.21-4.18-2-5.2-1.37a.63.63,0,0,0-.3.57,1.27,1.27,0,0,0,.47,1A3.46,3.46,0,0,0,374.42,406.29Zm2.14-.64c-1.93.34-3.4.27-4-.21a.85.85,0,0,1-.32-.69.21.21,0,0,1,.1-.21C372.9,404.2,375,405,376.56,405.65Z" style="fill:#407BFF"></path><path d="M377.23,406a.22.22,0,0,0,.21-.25c0-.16-.7-4-2.82-3.76-.56.06-.72.35-.76.57-.14,1,2.15,2.94,3.29,3.42Zm-2.43-3.6c1.27,0,1.92,2.09,2.14,3-1.18-.66-2.75-2.18-2.66-2.78,0,0,0-.17.38-.21Z" style="fill:#407BFF"></path><path d="M350.2,224.92s4.45,55.37,7.7,82.69c3.37,28.42,14.47,82.94,14.47,82.94l16.11-.34s-4.42-61.9-6.13-90.26C380.48,269,380,224.24,380,224.24Z" style="fill:#407BFF"></path><path d="M350.2,224.92s4.45,55.37,7.7,82.69c3.37,28.42,14.47,82.94,14.47,82.94l16.11-.34s-4.42-61.9-6.13-90.26C380.48,269,380,224.24,380,224.24Z" style="fill:#fff;opacity:0.6000000000000001"></path><polygon points="390.46 390.93 371.51 391.31 370.12 385.02 390.23 384.97 390.46 390.93" style="fill:#407BFF"></polygon><path d="M333.37,148.15s-6.59,24.46,1.11,77.11c14.38-.31,38.53-.87,45.52-1,.18-7.33-5.23-43.27,1.1-77.92A93.57,93.57,0,0,0,367.32,145a174.4,174.4,0,0,0-20.28.44A89.49,89.49,0,0,0,333.37,148.15Z" style="fill:#263238"></path><path d="M378.34,171l-7.45-6.17c.49,4.82,4.85,16.63,7.15,22.61C378,182.2,378.05,176.67,378.34,171Z" style="opacity:0.2"></path><path d="M351.69,162.33l-8.13,16.09a1.79,1.79,0,0,0,2.42,2.4l5.31-2.92a1.75,1.75,0,0,1,1.85.12l5.23,3.77a1.73,1.73,0,0,0,2.64-2l-6.11-17.18A1.75,1.75,0,0,0,351.69,162.33Z" style="fill:#fff"></path><path d="M364.82,122.16c-1.14,6.56-2.16,18.54,2.5,22.79,0,0-1.36,5.94-13.77,8-8.34-2.68-6.51-7.52-6.51-7.52,7.24-1.9,6.93-7.29,5.56-12.33Z" style="fill:#ff8b7b"></path><path d="M359.84,126.61l-7.24,6.44a21.06,21.06,0,0,1,.7,3.59c2.78-.46,6.53-3.6,6.76-6.51A9.73,9.73,0,0,0,359.84,126.61Z" style="opacity:0.2"></path><path d="M368.79,114.09c-2.41,8.52-3.38,13.63-8.7,17.12-8,5.24-17.81-1-18-10.09-.18-8.16,3.78-20.73,13-22.33A12.08,12.08,0,0,1,368.79,114.09Z" style="fill:#ff8b7b"></path><path d="M363.66,119.31c-1.12-2.72-1.93-11.68,2.74-13.88s9.52,3.17,8.29,5.71C372.8,115.08,366.26,125.61,363.66,119.31Z" style="fill:#263238"></path><path d="M366.45,108.59c-1.15-3-14.86-4.7-16.78-7.93-2.28-3.84,7.07-4.3,13.5-2.35,5.65,1.72,9.42,3.38,8.76,7.58C371.56,108.27,366.45,108.59,366.45,108.59Z" style="fill:#263238"></path><path d="M369.43,105.5s3,.82,4.64-1.38C373.55,106.3,371,108.5,369.43,105.5Z" style="fill:#263238"></path><path d="M355.7,96.25c-4.12-3.2-9.73.56-9.2,4.73s14.42,7.34,14.42,7.34S361.17,100.5,355.7,96.25Z" style="fill:#263238"></path><path d="M346.51,101c.63,2.92,2.76,5.21,7.07,6.91a15.65,15.65,0,0,1-5.43-7.31Z" style="fill:#263238"></path><path d="M355.16,113.66c-.15.71-.64,1.2-1.1,1.1s-.71-.76-.56-1.46.65-1.19,1.11-1.09S355.32,113,355.16,113.66Z" style="fill:#263238"></path><path d="M347.22,111.94c-.16.7-.65,1.19-1.11,1.09s-.71-.75-.56-1.45.65-1.19,1.11-1.1S347.37,111.24,347.22,111.94Z" style="fill:#263238"></path><path d="M349.67,112.84a25.57,25.57,0,0,1-4.67,5.28c1,1.43,3.23,1.36,3.23,1.36Z" style="fill:#ff5652"></path><path d="M349.85,121.87h0a6,6,0,0,0,5.4-1.31.21.21,0,0,0,0-.3.22.22,0,0,0-.3,0,5.72,5.72,0,0,1-5,1.19.21.21,0,0,0-.09.42Z" style="fill:#263238"></path><path d="M358.11,111.62a.43.43,0,0,0,.48-.59,4.23,4.23,0,0,0-3-2.44.43.43,0,0,0-.48.36.42.42,0,0,0,.35.48h0a3.33,3.33,0,0,1,2.35,1.95A.43.43,0,0,0,358.11,111.62Z" style="fill:#263238"></path><path d="M344.32,108.45a.4.4,0,0,0,.43-.15,3.38,3.38,0,0,1,2.73-1.36.42.42,0,1,0,.08-.84,4.17,4.17,0,0,0-3.47,1.68.41.41,0,0,0,.07.59A.35.35,0,0,0,344.32,108.45Z" style="fill:#263238"></path><path d="M383.28,153.16c1.82,3.18,3.34,6.26,4.92,9.43s3,6.36,4.35,9.62,2.66,6.57,3.8,10a101.49,101.49,0,0,1,3,10.43l.61,2.73a16.6,16.6,0,0,1,.34,3.9,19.5,19.5,0,0,1-1.59,7.06,31.78,31.78,0,0,1-7.11,10,58.5,58.5,0,0,1-8.7,6.93c-1.51,1-3.07,1.92-4.64,2.8s-3.13,1.69-4.88,2.46l-3.32-5.81c1.21-1,2.54-2,3.78-3.08s2.45-2.18,3.65-3.28a62.08,62.08,0,0,0,6.43-6.95,23.2,23.2,0,0,0,4-7.14,8,8,0,0,0,.36-3,5.2,5.2,0,0,0-.23-1.2l-.68-2.24a157.78,157.78,0,0,0-7.2-18.21c-1.37-3-2.83-6-4.29-9s-3-6-4.49-8.85Z" style="fill:#ff8b7b"></path><path d="M381.44,146.39c8.34,1.8,14.14,23.56,14.14,23.56l-14.91,13.53a57.76,57.76,0,0,1-11-18C365.72,154.59,372.52,144.45,381.44,146.39Z" style="fill:#263238"></path><path d="M371.87,221.68l-9.59.1,6,9.67s6.83-1.69,7.44-5.12Z" style="fill:#ff8b7b"></path><polygon points="356.31 227.49 361.6 235.25 368.23 231.45 362.28 221.78 356.31 227.49" style="fill:#ff8b7b"></polygon><path d="M371.41,121.89a8.45,8.45,0,0,1-5,4.06c-2.84.83-4.29-1.7-3.53-4.39.69-2.42,3-5.77,5.84-5.42S372.68,119.48,371.41,121.89Z" style="fill:#ff8b7b"></path></g><g id="freepik--Hello--inject-96"><rect x="275.75" y="287.76" width="10.69" height="1" transform="translate(-20.1 21.07) rotate(-4.15)" style="fill:#407BFF"></rect><rect x="290.77" y="286.87" width="5.25" height="1" transform="translate(-20.01 21.96) rotate(-4.15)" style="fill:#407BFF"></rect><path d="M342,169.27,165.44,182a14,14,0,0,0-12.88,14.89l6,83.22A14,14,0,0,0,173.47,293l10-.72a2.75,2.75,0,0,1,2.94,2.54l1.12,15.42a1.5,1.5,0,0,0,2.64.88l16.74-19.35a4.07,4.07,0,0,1,2.77-1.39L350,280.27a14,14,0,0,0,12.89-14.89l-6-83.22A14,14,0,0,0,342,169.27Z" style="fill:#407BFF"></path><path d="M191.23,220.2l9.54-.69.78,10.8,10.42-.75-.78-10.8,9.58-.7L223,248.92l-9.58.69-.9-12.48-10.42.76.9,12.48-9.53.69Z" style="fill:#fff"></path><path d="M165.44,182a14,14,0,0,0-12.88,14.89l6,83.22A14,14,0,0,0,173.47,293l1.47-.11a11.12,11.12,0,0,0,10.12-9l20.11-104.76Z" style="opacity:0.2"></path><path d="M252.93,237.66l-17.18,1.24a5.52,5.52,0,0,0,1.34,3,4,4,0,0,0,3.34,1.22,4.93,4.93,0,0,0,2.36-.8,5.69,5.69,0,0,0,1.39-1.52l8.5.17a12.08,12.08,0,0,1-4.33,5.16q-2.62,1.66-7.74,2a16.21,16.21,0,0,1-7.08-.75,10.32,10.32,0,0,1-4.51-3.67,12.06,12.06,0,0,1-2.13-6.29,11.28,11.28,0,0,1,2.74-8.73q3.12-3.48,9-3.91a16.61,16.61,0,0,1,7.68.9,9.86,9.86,0,0,1,4.53,3.91,15.51,15.51,0,0,1,2,7.07Zm-9-3.48a5.75,5.75,0,0,0-1.59-3.46,4.21,4.21,0,0,0-6.07,1,6,6,0,0,0-.78,3.09Z" style="fill:#fff"></path><path d="M255.58,215.55l8.59-.62,2.23,30.85-8.59.62Z" style="fill:#fff"></path><path d="M269.93,214.51l8.59-.62,2.23,30.85-8.58.62Z" style="fill:#fff"></path><path d="M284.37,233.31a11.21,11.21,0,0,1,2.84-8.68q3.21-3.57,9.09-4,6.7-.48,10.42,3.16a12.21,12.21,0,0,1,.51,16.23q-3.18,3.54-9.22,4a13.34,13.34,0,0,1-8.92-2.1A11,11,0,0,1,284.37,233.31Zm8.59-.64a6.7,6.7,0,0,0,1.53,4.33,4,4,0,0,0,6.08-.42,7,7,0,0,0,.86-4.61,6.59,6.59,0,0,0-1.51-4.24,3.72,3.72,0,0,0-3.07-1.2,3.87,3.87,0,0,0-3,1.66A6.61,6.61,0,0,0,293,232.67Z" style="fill:#fff"></path><path d="M312.77,211.41l9.15-.66.51,7L321.68,232l-5.66.41-2.75-14Zm2,23.28,8.54-.62.55,7.56-8.55.61Z" style="fill:#fff"></path></g></svg>