<svg xmlns="http://www.w3.org/2000/svg" viewBox="0 0 500 500"><g id="freepik--Login--inject-75"><rect x="139.96" y="65.52" width="254.79" height="319.64" style="fill:#f5f5f5"></rect><path d="M140,65.52l254.79-.22H395v.22c0,91.3,0,201.28,0,319.6v.29h-.26l-254.79,0h-.23v-.23c.14-189.94.23-317.59.23-319.63,0,2,.1,129.69.24,319.63l-.24-.23,254.79,0-.26.26v0c0-118.32,0-228.3,0-319.6l.22.21Z" style="fill:#263238"></path><path d="M238.12,90.86h2.56v11.61h7.2v2.16h-9.76Z"></path><path d="M248.7,99.38a5.6,5.6,0,1,1,5.59,5.39A5.29,5.29,0,0,1,248.7,99.38Zm8.72,0a3.12,3.12,0,1,0-3.13,3.29A3.05,3.05,0,0,0,257.42,99.38Z"></path><path d="M272.68,94.13V103c0,3.81-2,5.55-5.67,5.55a8.37,8.37,0,0,1-5.11-1.5l1.1-1.85a6.34,6.34,0,0,0,3.88,1.26c2.32,0,3.34-1.06,3.34-3.19v-.55a4.62,4.62,0,0,1-3.52,1.4,5.08,5.08,0,1,1,0-10.15,4.54,4.54,0,0,1,3.64,1.52v-1.4Zm-2.42,4.94a3.2,3.2,0,1,0-3.19,3A3,3,0,0,0,270.26,99.07Z"></path><path d="M275.57,90.92a1.5,1.5,0,0,1,1.57-1.47,1.47,1.47,0,0,1,1.58,1.41,1.58,1.58,0,0,1-3.15.06Zm.33,3.21h2.46v10.5H275.9Z"></path><path d="M291.93,98.61v6h-2.46v-5.7c0-1.87-.92-2.77-2.49-2.77-1.75,0-2.94,1.06-2.94,3.16v5.31h-2.45V94.13h2.34v1.36A4.53,4.53,0,0,1,287.55,94C290.06,94,291.93,95.45,291.93,98.61Z"></path><path d="M309.78,83.77a5.16,5.16,0,0,1,.37,4A9.08,9.08,0,0,1,308,91.31a16,16,0,0,1-7.18,4c-.66-2.9.94-6,1.85-7.46,1.43-2.37,5.47-5.78,7.1-4.08" style="fill:#00ACEE"></path><path d="M300.34,100.39A4.39,4.39,0,0,1,304,97.85a5.89,5.89,0,0,1,4.27,1.46,2.48,2.48,0,0,1,1,1.8,1.92,1.92,0,0,1-1.1,1.56,4,4,0,0,1-2,.29c-2.29-.17-4.47-.74-5.85-2.57" style="fill:#00ACEE"></path><path d="M294.57,103.79a8,8,0,0,1,1.27-1.23,8.16,8.16,0,0,1,1.61-1.06,17.27,17.27,0,0,1,2.15-1,8.79,8.79,0,0,1,4.25-.49,5.86,5.86,0,0,1,1.26.33,1.42,1.42,0,0,1,.43.22s-.65-.22-1.72-.34a9.49,9.49,0,0,0-4.12.56,21,21,0,0,0-2.12.94,8.77,8.77,0,0,0-1.61,1A12.87,12.87,0,0,1,294.57,103.79Z" style="fill:#263238"></path><path d="M306.94,86.64a5.78,5.78,0,0,1-.46.78c-.31.48-.76,1.18-1.33,2-1.14,1.71-2.75,4.05-4.58,6.6s-3.57,4.81-4.85,6.42c-.64.81-1.17,1.45-1.54,1.89a5.62,5.62,0,0,1-.6.66,4.42,4.42,0,0,1,.51-.73l1.46-2c1.24-1.64,2.94-3.91,4.77-6.46L305,89.34l1.42-2A5.06,5.06,0,0,1,306.94,86.64Z" style="fill:#263238"></path><path d="M297,99.22a10.31,10.31,0,0,0-1.38-9.3c-.49-.67-1.24-1.34-2-1.14s-1.16,1.15-1.26,2a8.78,8.78,0,0,0,4.53,8.64" style="fill:#00ACEE"></path><path d="M295,92.26s.11.13.27.39.36.64.6,1.13A11.62,11.62,0,0,1,297,97.85a7.4,7.4,0,0,1-.22,2.34A6.7,6.7,0,0,1,296,102a7.06,7.06,0,0,1-.76,1,2,2,0,0,1-.33.33c-.05,0,.39-.55.91-1.48a7.53,7.53,0,0,0,.67-1.72,7.45,7.45,0,0,0,.19-2.25,13.09,13.09,0,0,0-1.06-4A17.33,17.33,0,0,1,295,92.26Z" style="fill:#263238"></path><path d="M166.26,137v.73h-5.69v-8.05h5.52v.74h-4.67v2.86h4.16V134h-4.16v3Z" style="fill:#263238"></path><path d="M178.07,134.2v3.51h-.81v-3.43c0-1.27-.65-1.93-1.74-1.93a2,2,0,0,0-2,2.19v3.17h-.81v-3.43c0-1.27-.65-1.93-1.75-1.93a2,2,0,0,0-2,2.19v3.17h-.81v-6.05h.78v1.11a2.43,2.43,0,0,1,2.22-1.15,2.17,2.17,0,0,1,2.15,1.27,2.64,2.64,0,0,1,2.39-1.27A2.28,2.28,0,0,1,178.07,134.2Z" style="fill:#263238"></path><path d="M184.86,134v3.75h-.79v-.94a2.27,2.27,0,0,1-2.08,1c-1.37,0-2.21-.71-2.21-1.76s.6-1.71,2.34-1.71H184v-.37c0-1-.59-1.6-1.72-1.6a3.13,3.13,0,0,0-2,.71l-.37-.61a3.89,3.89,0,0,1,2.46-.81A2.15,2.15,0,0,1,184.86,134ZM184,135.9v-1h-1.9c-1.17,0-1.55.46-1.55,1.08s.56,1.14,1.53,1.14A1.94,1.94,0,0,0,184,135.9Z" style="fill:#263238"></path><path d="M186.89,129.75a.58.58,0,0,1,.6-.57.57.57,0,0,1,.59.56.59.59,0,0,1-.59.6A.59.59,0,0,1,186.89,129.75Zm.18,1.91h.82v6.05h-.82Z" style="fill:#263238"></path><path d="M190.17,129.18H191v8.53h-.81Z" style="fill:#263238"></path><path d="M200.84,134v3.75h-.78v-.94a2.28,2.28,0,0,1-2.09,1c-1.36,0-2.2-.71-2.2-1.76s.59-1.71,2.33-1.71H200v-.37c0-1-.58-1.6-1.71-1.6a3.11,3.11,0,0,0-2,.71l-.37-.61a3.87,3.87,0,0,1,2.46-.81A2.15,2.15,0,0,1,200.84,134ZM200,135.9v-1h-1.9c-1.17,0-1.55.46-1.55,1.08s.56,1.14,1.53,1.14A1.94,1.94,0,0,0,200,135.9Z" style="fill:#263238"></path><path d="M208.6,129.18v8.53h-.78v-1.19a2.62,2.62,0,0,1-2.34,1.25,3.08,3.08,0,0,1,0-6.15,2.66,2.66,0,0,1,2.31,1.19v-3.63Zm-.8,5.51a2.25,2.25,0,1,0-2.25,2.36A2.22,2.22,0,0,0,207.8,134.69Z" style="fill:#263238"></path><path d="M216.4,129.18v8.53h-.78v-1.19a2.65,2.65,0,0,1-2.34,1.25,3.08,3.08,0,0,1,0-6.15,2.63,2.63,0,0,1,2.3,1.19v-3.63Zm-.81,5.51a2.25,2.25,0,1,0-2.24,2.36A2.21,2.21,0,0,0,215.59,134.69Z" style="fill:#263238"></path><path d="M221.72,131.62v.79h-.19a2,2,0,0,0-2,2.23v3.08h-.82v-6.05h.79v1.19A2.27,2.27,0,0,1,221.72,131.62Z" style="fill:#263238"></path><path d="M228.4,134.94h-5.06a2.24,2.24,0,0,0,2.38,2.11,2.4,2.4,0,0,0,1.86-.8l.46.53a3.2,3.2,0,0,1-5.51-2.09,2.95,2.95,0,1,1,5.89,0C228.42,134.76,228.4,134.85,228.4,134.94Zm-5.06-.61h4.29a2.15,2.15,0,0,0-4.29,0Z" style="fill:#263238"></path><path d="M229.24,137l.37-.64a3.64,3.64,0,0,0,2.15.68c1.15,0,1.62-.39,1.62-1,0-1.58-3.92-.34-3.92-2.73,0-1,.85-1.72,2.39-1.72a4,4,0,0,1,2.14.56l-.35.66a3.12,3.12,0,0,0-1.79-.52c-1.09,0-1.57.42-1.57,1,0,1.63,3.92.4,3.92,2.73,0,1-.92,1.72-2.5,1.72A4,4,0,0,1,229.24,137Z" style="fill:#263238"></path><path d="M234.86,137l.37-.64a3.67,3.67,0,0,0,2.15.68c1.15,0,1.63-.39,1.63-1,0-1.58-3.93-.34-3.93-2.73,0-1,.85-1.72,2.4-1.72a4.07,4.07,0,0,1,2.14.56l-.36.66a3.08,3.08,0,0,0-1.78-.52c-1.1,0-1.58.42-1.58,1,0,1.63,3.92.4,3.92,2.73,0,1-.92,1.72-2.49,1.72A4.05,4.05,0,0,1,234.86,137Z" style="fill:#263238"></path><path d="M175.54,159.26h-5.06a2.24,2.24,0,0,0,2.38,2.1,2.37,2.37,0,0,0,1.85-.79l.46.53a3.2,3.2,0,0,1-5.51-2.09,2.92,2.92,0,0,1,3-3.08,2.89,2.89,0,0,1,2.93,3.08C175.55,159.08,175.54,159.17,175.54,159.26Zm-5.06-.61h4.29a2.15,2.15,0,0,0-4.29,0Z" style="fill:#e0e0e0"></path><path d="M180.9,162,179,159.5,177.05,162h-.92l2.39-3.1-2.28-3h.92l1.82,2.37L180.8,156h.89l-2.27,3,2.41,3.1Z" style="fill:#e0e0e0"></path><path d="M187.64,158.28V162h-.78v-.94a2.29,2.29,0,0,1-2.09,1c-1.37,0-2.2-.71-2.2-1.76s.59-1.71,2.33-1.71h1.92v-.37c0-1-.59-1.6-1.71-1.6a3.1,3.1,0,0,0-2,.71l-.36-.61a3.82,3.82,0,0,1,2.46-.82A2.16,2.16,0,0,1,187.64,158.28Zm-.82,1.93v-1h-1.9c-1.17,0-1.55.46-1.55,1.09s.56,1.14,1.53,1.14A1.93,1.93,0,0,0,186.82,160.21Z" style="fill:#e0e0e0"></path><path d="M199.84,158.52V162H199V158.6c0-1.27-.65-1.93-1.74-1.93a2,2,0,0,0-2,2.19V162h-.81V158.6c0-1.27-.65-1.93-1.75-1.93a2,2,0,0,0-2,2.19V162h-.81V156h.78v1.1a2.45,2.45,0,0,1,2.22-1.15,2.18,2.18,0,0,1,2.15,1.28,2.64,2.64,0,0,1,2.39-1.28A2.29,2.29,0,0,1,199.84,158.52Z" style="fill:#e0e0e0"></path><path d="M208.19,159a2.93,2.93,0,0,1-3,3.08,2.64,2.64,0,0,1-2.3-1.2v3.37h-.81V156h.78v1.2a2.62,2.62,0,0,1,2.33-1.25A2.94,2.94,0,0,1,208.19,159Zm-.82,0a2.26,2.26,0,1,0-2.25,2.35A2.23,2.23,0,0,0,207.37,159Z" style="fill:#e0e0e0"></path><path d="M209.85,153.5h.82V162h-.82Z" style="fill:#e0e0e0"></path><path d="M218.22,159.26h-5.07a2.25,2.25,0,0,0,2.39,2.1,2.38,2.38,0,0,0,1.85-.79l.46.53a3.2,3.2,0,0,1-5.51-2.09,2.95,2.95,0,1,1,5.89,0C218.23,159.08,218.22,159.17,218.22,159.26Zm-5.07-.61h4.3a2.15,2.15,0,0,0-4.3,0Z" style="fill:#e0e0e0"></path><path d="M230.05,159c0,2-.72,3.11-1.91,3.11a1.23,1.23,0,0,1-1.3-1.25,2.56,2.56,0,0,1-2.3,1.25,3,3,0,0,1,0-5.94,2.58,2.58,0,0,1,2.28,1.21V156.2h.75v4.36c0,.64.32.87.71.87.71,0,1.17-.88,1.17-2.44a4.38,4.38,0,0,0-4.72-4.49,4.63,4.63,0,1,0,0,9.25,5,5,0,0,0,2.21-.51l.19.56a5.53,5.53,0,0,1-2.4.53,5.21,5.21,0,1,1,0-10.42A5,5,0,0,1,230.05,159Zm-3.22.13a2.19,2.19,0,1,0-2.19,2.31A2.14,2.14,0,0,0,226.83,159.11Z" style="fill:#e0e0e0"></path><path d="M237.38,156v5.32c0,2.08-1,3-3,3a4.22,4.22,0,0,1-2.82-.93l.41-.62a3.61,3.61,0,0,0,2.39.83c1.53,0,2.23-.71,2.23-2.2v-.77a2.73,2.73,0,0,1-2.36,1.17,2.94,2.94,0,1,1,0-5.87,2.73,2.73,0,0,1,2.39,1.21V156Zm-.8,2.88a2.3,2.3,0,1,0-2.3,2.22A2.16,2.16,0,0,0,236.58,158.86Z" style="fill:#e0e0e0"></path><path d="M249.65,158.52V162h-.82V158.6c0-1.27-.64-1.93-1.74-1.93a2,2,0,0,0-2,2.19V162h-.82V158.6c0-1.27-.64-1.93-1.75-1.93a2,2,0,0,0-2,2.19V162h-.82V156h.78v1.1a2.46,2.46,0,0,1,2.22-1.15,2.19,2.19,0,0,1,2.16,1.28,2.63,2.63,0,0,1,2.39-1.28A2.29,2.29,0,0,1,249.65,158.52Z" style="fill:#e0e0e0"></path><path d="M256.43,158.28V162h-.78v-.94a2.27,2.27,0,0,1-2.08,1c-1.37,0-2.21-.71-2.21-1.76s.59-1.71,2.33-1.71h1.92v-.37c0-1-.58-1.6-1.71-1.6a3.05,3.05,0,0,0-2,.71l-.37-.61a3.82,3.82,0,0,1,2.46-.82A2.16,2.16,0,0,1,256.43,158.28Zm-.82,1.93v-1h-1.9c-1.17,0-1.55.46-1.55,1.09s.57,1.14,1.53,1.14A1.93,1.93,0,0,0,255.61,160.21Z" style="fill:#e0e0e0"></path><path d="M258.46,154.07a.59.59,0,0,1,.6-.57.58.58,0,0,1,.6.56.59.59,0,0,1-.6.6A.6.6,0,0,1,258.46,154.07Zm.19,1.91h.81V162h-.81Z" style="fill:#e0e0e0"></path><path d="M261.74,153.5h.82V162h-.82Z" style="fill:#e0e0e0"></path><path d="M264.3,161.46a.61.61,0,0,1,.61-.62.62.62,0,0,1,.63.62.63.63,0,0,1-.63.63A.62.62,0,0,1,264.3,161.46Z" style="fill:#e0e0e0"></path><path d="M266.49,159a3,3,0,0,1,3.12-3.08,2.67,2.67,0,0,1,2.37,1.2l-.61.42a2.07,2.07,0,0,0-1.76-.9,2.36,2.36,0,0,0,0,4.71,2,2,0,0,0,1.76-.88l.61.41a2.67,2.67,0,0,1-2.37,1.2A3,3,0,0,1,266.49,159Z" style="fill:#e0e0e0"></path><path d="M272.86,159a3.08,3.08,0,1,1,3.08,3.08A3,3,0,0,1,272.86,159Zm5.33,0a2.25,2.25,0,1,0-2.25,2.35A2.21,2.21,0,0,0,278.19,159Z" style="fill:#e0e0e0"></path><path d="M290.67,158.52V162h-.82V158.6c0-1.27-.64-1.93-1.74-1.93a2,2,0,0,0-2,2.19V162h-.82V158.6c0-1.27-.64-1.93-1.75-1.93a2,2,0,0,0-2,2.19V162h-.82V156h.78v1.1a2.46,2.46,0,0,1,2.22-1.15,2.17,2.17,0,0,1,2.15,1.28,2.66,2.66,0,0,1,2.4-1.28A2.29,2.29,0,0,1,290.67,158.52Z" style="fill:#e0e0e0"></path><path d="M373.82,172.39a1.77,1.77,0,0,0,1.11-.47c.73-.57.42-1.92.48-3.5,0-3.22,0-8-.05-14.06,0-1.53,0-3.14,0-4.84v-1.28a5.34,5.34,0,0,0-.08-1.28,1.53,1.53,0,0,0-.81-.9,2.93,2.93,0,0,0-1.31-.14l-12.09,0-29.47,0-170.68.07a1.4,1.4,0,0,0-1.13.57,1.94,1.94,0,0,0-.27,1.34v21.57c0,.48,0,1.06,0,1.47a1.36,1.36,0,0,0,.74,1,1.31,1.31,0,0,0,.61.15h20.18l45.32,0,76.73.06,51.73.08,14.06.05,3.66,0,1.25,0-1.25,0-3.66,0-14.06.05-51.73.08-76.73.06h-65.5a1.9,1.9,0,0,1-1.86-1.56c-.07-.59,0-1,0-1.56V148a8.06,8.06,0,0,1,0-.82,1.8,1.8,0,0,1,.34-.82,1.91,1.91,0,0,1,1.55-.79l170.68.08,29.47,0,12.09,0a3.13,3.13,0,0,1,1.41.17,1.75,1.75,0,0,1,.93,1,5.23,5.23,0,0,1,.09,1.35c0,.43,0,.86,0,1.28,0,1.7,0,3.31,0,4.84,0,6.1,0,10.84-.05,14.06,0,.81,0,1.51,0,2.13A1.73,1.73,0,0,1,375,172,1.52,1.52,0,0,1,373.82,172.39Z" style="fill:#e0e0e0"></path><path d="M166.87,192.84c0,1.71-1.24,2.75-3.29,2.75h-2.16v2.54h-.85v-8h3C165.63,190.08,166.87,191.11,166.87,192.84Zm-.85,0c0-1.29-.85-2-2.46-2h-2.14v4h2.14C165.17,194.84,166,194.1,166,192.84Z" style="fill:#263238"></path><path d="M173.05,194.38v3.75h-.79v-.94a2.27,2.27,0,0,1-2.08,1c-1.37,0-2.21-.72-2.21-1.76s.6-1.72,2.34-1.72h1.92v-.37c0-1-.59-1.59-1.72-1.59a3.07,3.07,0,0,0-2,.71l-.37-.61a3.84,3.84,0,0,1,2.46-.82A2.15,2.15,0,0,1,173.05,194.38Zm-.82,1.93v-1h-1.9c-1.17,0-1.55.46-1.55,1.08s.56,1.14,1.53,1.14A1.92,1.92,0,0,0,172.23,196.31Z" style="fill:#263238"></path><path d="M174.42,197.44l.37-.64a3.71,3.71,0,0,0,2.15.67c1.15,0,1.62-.39,1.62-1,0-1.57-3.92-.33-3.92-2.72,0-1,.85-1.73,2.39-1.73a4,4,0,0,1,2.14.57l-.35.65a3.09,3.09,0,0,0-1.79-.52c-1.09,0-1.57.43-1.57,1,0,1.64,3.92.41,3.92,2.73,0,1-.92,1.73-2.5,1.73A4,4,0,0,1,174.42,197.44Z" style="fill:#263238"></path><path d="M180.05,197.44l.36-.64a3.75,3.75,0,0,0,2.16.67c1.15,0,1.62-.39,1.62-1,0-1.57-3.93-.33-3.93-2.72,0-1,.86-1.73,2.4-1.73a4.07,4.07,0,0,1,2.14.57l-.36.65a3.08,3.08,0,0,0-1.78-.52c-1.1,0-1.58.43-1.58,1,0,1.64,3.92.41,3.92,2.73,0,1-.92,1.73-2.49,1.73A4,4,0,0,1,180.05,197.44Z" style="fill:#263238"></path><path d="M195.28,192.08l-2.29,6h-.77l-1.91-5-1.91,5h-.77l-2.28-6h.78l1.9,5.14,1.94-5.14h.7l1.94,5.14,1.92-5.14Z" style="fill:#263238"></path><path d="M195.72,195.1a3.08,3.08,0,1,1,3.08,3.09A3,3,0,0,1,195.72,195.1Zm5.33,0a2.25,2.25,0,1,0-2.25,2.36A2.21,2.21,0,0,0,201.05,195.1Z" style="fill:#263238"></path><path d="M206.59,192v.8l-.2,0a2,2,0,0,0-2,2.24v3.08h-.82v-6h.78v1.18A2.29,2.29,0,0,1,206.59,192Z" style="fill:#263238"></path><path d="M213.52,189.59v8.54h-.78v-1.2a2.61,2.61,0,0,1-2.33,1.26,3.08,3.08,0,0,1,0-6.16,2.66,2.66,0,0,1,2.3,1.2v-3.64Zm-.8,5.51a2.25,2.25,0,1,0-2.24,2.36A2.21,2.21,0,0,0,212.72,195.1Z" style="fill:#263238"></path><path d="M176.14,222.47v.74h-5.7v-8.06H176v.74H171.3v2.87h4.16v.72H171.3v3Z" style="fill:#e0e0e0"></path><path d="M183.53,219.7v3.51h-.81v-3.43a1.69,1.69,0,0,0-1.82-1.93,2,2,0,0,0-2.12,2.18v3.18H178v-6.05h.78v1.11a2.54,2.54,0,0,1,2.3-1.16A2.31,2.31,0,0,1,183.53,219.7Z" style="fill:#e0e0e0"></path><path d="M188.94,222.84a1.94,1.94,0,0,1-1.28.43,1.6,1.6,0,0,1-1.77-1.76v-3.66h-1.08v-.69h1.08v-1.33h.82v1.33h1.84v.69h-1.84v3.61a1,1,0,0,0,1,1.1,1.33,1.33,0,0,0,.9-.31Z" style="fill:#e0e0e0"></path><path d="M195.47,220.43h-5.06a2.24,2.24,0,0,0,2.38,2.11,2.37,2.37,0,0,0,1.85-.79l.46.53a3.2,3.2,0,0,1-5.51-2.1,2.91,2.91,0,0,1,3-3.07,2.88,2.88,0,0,1,2.93,3.07C195.48,220.25,195.47,220.34,195.47,220.43Zm-5.06-.6h4.29a2.15,2.15,0,0,0-4.29,0Z" style="fill:#e0e0e0"></path><path d="M200.2,217.11v.79H200a2,2,0,0,0-2,2.23v3.09h-.81v-6.05h.78v1.18A2.29,2.29,0,0,1,200.2,217.11Z" style="fill:#e0e0e0"></path><path d="M210.9,220.18a2.94,2.94,0,0,1-3,3.09,2.64,2.64,0,0,1-2.3-1.2v3.37h-.82v-8.28h.78v1.19a2.66,2.66,0,0,1,2.34-1.24A2.93,2.93,0,0,1,210.9,220.18Zm-.81,0a2.26,2.26,0,1,0-4.51,0,2.26,2.26,0,1,0,4.51,0Z" style="fill:#e0e0e0"></path><path d="M217.1,219.46v3.75h-.78v-1a2.26,2.26,0,0,1-2.08,1c-1.37,0-2.21-.72-2.21-1.76s.6-1.72,2.33-1.72h1.92v-.37c0-1-.58-1.6-1.71-1.6a3.06,3.06,0,0,0-2,.72l-.37-.61a3.82,3.82,0,0,1,2.46-.82A2.15,2.15,0,0,1,217.1,219.46Zm-.82,1.93v-1h-1.89c-1.18,0-1.56.46-1.56,1.08s.57,1.14,1.53,1.14A1.94,1.94,0,0,0,216.28,221.39Z" style="fill:#e0e0e0"></path><path d="M218.48,222.52l.37-.65a3.64,3.64,0,0,0,2.15.68c1.15,0,1.62-.39,1.62-1,0-1.57-3.92-.33-3.92-2.72,0-1,.85-1.73,2.39-1.73a4.17,4.17,0,0,1,2.14.56l-.36.66a3.08,3.08,0,0,0-1.78-.52c-1.09,0-1.58.43-1.58,1,0,1.64,3.93.41,3.93,2.73,0,1.05-.92,1.73-2.5,1.73A4.07,4.07,0,0,1,218.48,222.52Z" style="fill:#e0e0e0"></path><path d="M224.1,222.52l.37-.65a3.64,3.64,0,0,0,2.15.68c1.15,0,1.62-.39,1.62-1,0-1.57-3.92-.33-3.92-2.72,0-1,.85-1.73,2.39-1.73a4.11,4.11,0,0,1,2.14.56l-.35.66a3.12,3.12,0,0,0-1.79-.52c-1.09,0-1.57.43-1.57,1,0,1.64,3.92.41,3.92,2.73,0,1.05-.92,1.73-2.5,1.73A4.09,4.09,0,0,1,224.1,222.52Z" style="fill:#e0e0e0"></path><path d="M239.33,217.16,237,223.21h-.77l-1.91-5-1.91,5h-.77l-2.28-6.05h.79l1.89,5.14,1.95-5.14h.7l1.93,5.14,1.92-5.14Z" style="fill:#e0e0e0"></path><path d="M239.78,220.18a3.08,3.08,0,1,1,3.08,3.09A3,3,0,0,1,239.78,220.18Zm5.32,0a2.25,2.25,0,1,0-2.24,2.36A2.21,2.21,0,0,0,245.1,220.18Z" style="fill:#e0e0e0"></path><path d="M250.65,217.11v.79h-.2a2,2,0,0,0-2,2.23v3.09h-.81v-6.05h.78v1.18A2.29,2.29,0,0,1,250.65,217.11Z" style="fill:#e0e0e0"></path><path d="M257.58,214.67v8.54h-.78V222a2.63,2.63,0,0,1-2.34,1.26,3.08,3.08,0,0,1,0-6.16,2.62,2.62,0,0,1,2.3,1.2v-3.64Zm-.8,5.51a2.25,2.25,0,1,0-2.25,2.36A2.22,2.22,0,0,0,256.78,220.18Z" style="fill:#e0e0e0"></path><path d="M325,215.89v3.16h4.16v.74H325v3.42h-.86v-8.06h5.53v.74Z" style="fill:#00ACEE"></path><path d="M330.45,220.18a3.08,3.08,0,1,1,3.09,3.09A3,3,0,0,1,330.45,220.18Zm5.33,0a2.25,2.25,0,1,0-2.24,2.36A2.21,2.21,0,0,0,335.78,220.18Z" style="fill:#00ACEE"></path><path d="M341.32,217.11v.79h-.19a2,2,0,0,0-2,2.23v3.09h-.82v-6.05h.79v1.18A2.29,2.29,0,0,1,341.32,217.11Z" style="fill:#00ACEE"></path><path d="M348.34,217.16v5.31c0,2.08-1,3-3,3a4.29,4.29,0,0,1-2.82-.93l.42-.63a3.58,3.58,0,0,0,2.38.83c1.53,0,2.23-.7,2.23-2.19v-.78a2.7,2.7,0,0,1-2.36,1.18,2.94,2.94,0,1,1,0-5.87,2.73,2.73,0,0,1,2.4,1.21v-1.16Zm-.79,2.87a2.3,2.3,0,1,0-2.31,2.22A2.17,2.17,0,0,0,347.55,220Z" style="fill:#00ACEE"></path><path d="M350,220.18a3.08,3.08,0,1,1,3.08,3.09A3,3,0,0,1,350,220.18Zm5.32,0a2.25,2.25,0,1,0-2.24,2.36A2.21,2.21,0,0,0,355.34,220.18Z" style="fill:#00ACEE"></path><path d="M361,222.84a1.92,1.92,0,0,1-1.28.43,1.61,1.61,0,0,1-1.77-1.76v-3.66h-1.08v-.69H358v-1.33h.82v1.33h1.84v.69h-1.84v3.61a1,1,0,0,0,1,1.1,1.32,1.32,0,0,0,.89-.31Z" style="fill:#00ACEE"></path><path d="M366,217.21c0-.82-.68-1.4-1.86-1.4a2.66,2.66,0,0,0-2.19.93l-.61-.46a3.5,3.5,0,0,1,2.86-1.19c1.61,0,2.65.77,2.65,2,0,2-2.11,2.06-2.11,3.7h-.85C363.86,218.89,366,218.72,366,217.21Zm-2.28,5.46a.58.58,0,0,1,.6-.59.59.59,0,0,1,.61.59.61.61,0,0,1-.61.6A.6.6,0,0,1,363.69,222.67Z" style="fill:#00ACEE"></path><path d="M373.82,233.57a1.76,1.76,0,0,0,1.11-.48c.73-.56.42-1.92.48-3.49,0-3.23,0-8-.05-14.07,0-1.52,0-3.14,0-4.83v-1.29a5.26,5.26,0,0,0-.08-1.27,1.58,1.58,0,0,0-.81-.91,3.08,3.08,0,0,0-1.31-.14l-12.09,0-29.47,0-170.68.08a1.37,1.37,0,0,0-1.13.57,1.93,1.93,0,0,0-.27,1.34V230.7c0,.49,0,1.07,0,1.48a1.39,1.39,0,0,0,.74,1,1.44,1.44,0,0,0,.61.15h20.18l45.32,0,76.73,0,51.73.08,14.06,0,3.66,0,1.25,0-1.25,0-3.66,0-14.06,0-51.73.08-76.73.06h-65.5a1.9,1.9,0,0,1-1.86-1.55c-.07-.6,0-1,0-1.57V209.14a8,8,0,0,1,0-.82,1.83,1.83,0,0,1,.34-.83,1.9,1.9,0,0,1,1.55-.78l170.68.07,29.47,0,12.09,0a3.28,3.28,0,0,1,1.41.17,1.77,1.77,0,0,1,.93,1.06,5.15,5.15,0,0,1,.09,1.34c0,.44,0,.86,0,1.29,0,1.69,0,3.31,0,4.83,0,6.1,0,10.84-.05,14.07,0,.8,0,1.51,0,2.12a1.72,1.72,0,0,1-.54,1.41A1.56,1.56,0,0,1,373.82,233.57Z" style="fill:#e0e0e0"></path><path d="M245.69,330l.34-.66a3.91,3.91,0,0,0,2.65,1c1.51,0,2.17-.63,2.17-1.42,0-2.21-5-.86-5-3.84,0-1.18.92-2.2,3-2.2a4.5,4.5,0,0,1,2.49.71l-.28.68a4.18,4.18,0,0,0-2.21-.67c-1.48,0-2.13.66-2.13,1.46,0,2.21,5,.88,5,3.81,0,1.18-.95,2.2-3,2.2A4.39,4.39,0,0,1,245.69,330Z" style="fill:#263238"></path><path d="M253.18,323a.59.59,0,0,1,.6-.58.58.58,0,1,1-.6.58Zm.18,1.91h.82v6h-.82Z" style="fill:#263238"></path><path d="M269.46,327.45V331h-.82v-3.43a1.68,1.68,0,0,0-1.81-1.93,2,2,0,0,0-2.12,2.18V331h-.82v-6h.78V326a2.57,2.57,0,0,1,2.31-1.16A2.31,2.31,0,0,1,269.46,327.45Z" style="fill:#263238"></path><path d="M262.05,324.91v5.31c0,2.08-1,3-3,3a4.25,4.25,0,0,1-2.82-.93l.41-.63a3.6,3.6,0,0,0,2.38.83c1.53,0,2.23-.7,2.23-2.19v-.77a2.7,2.7,0,0,1-2.35,1.17,2.94,2.94,0,1,1,0-5.87,2.72,2.72,0,0,1,2.39,1.21v-1.16Zm-.79,2.87A2.3,2.3,0,1,0,259,330,2.17,2.17,0,0,0,261.26,327.78Z" style="fill:#263238"></path><path d="M280.62,324.91v6h-.78v-1.11a2.42,2.42,0,0,1-2.18,1.17,2.35,2.35,0,0,1-2.55-2.6v-3.51h.82v3.43c0,1.28.66,1.94,1.81,1.94a2,2,0,0,0,2.06-2.2v-3.17Z" style="fill:#263238"></path><path d="M289,327.93a2.94,2.94,0,0,1-3,3.09,2.66,2.66,0,0,1-2.3-1.2v3.37h-.82v-8.28h.79v1.19a2.63,2.63,0,0,1,2.33-1.24A2.93,2.93,0,0,1,289,327.93Zm-.82,0a2.26,2.26,0,1,0-2.25,2.36A2.23,2.23,0,0,0,288.22,327.93Z" style="fill:#263238"></path><path d="M373.82,340.88a1.77,1.77,0,0,0,1.11-.47c.73-.57.42-1.93.48-3.5,0-3.23,0-8-.05-14.07,0-1.52,0-3.14,0-4.83v-1.29a5.26,5.26,0,0,0-.08-1.27,1.58,1.58,0,0,0-.81-.91,3.08,3.08,0,0,0-1.31-.14l-12.09,0-29.47,0-170.68.08a1.4,1.4,0,0,0-1.13.57,1.93,1.93,0,0,0-.27,1.34V338c0,.49,0,1.07,0,1.48a1.37,1.37,0,0,0,.74,1,1.31,1.31,0,0,0,.61.15h20.18l45.32,0,76.73.05,51.73.09,14.06,0,3.66,0,1.25,0-1.25,0-3.66,0-14.06.05-51.73.08-76.73.06h-65.5a2,2,0,0,1-.84-.21,1.86,1.86,0,0,1-1-1.35c-.07-.6,0-1,0-1.57V316.45a8,8,0,0,1,0-.82,1.83,1.83,0,0,1,.34-.83,1.9,1.9,0,0,1,1.55-.78l170.68.07,29.47,0,12.09,0a3.28,3.28,0,0,1,1.41.17,1.77,1.77,0,0,1,.93,1.06,5.15,5.15,0,0,1,.09,1.34c0,.44,0,.87,0,1.29,0,1.69,0,3.31,0,4.83,0,6.1,0,10.84-.05,14.07,0,.8,0,1.51,0,2.12a1.71,1.71,0,0,1-.54,1.41A1.56,1.56,0,0,1,373.82,340.88Z" style="fill:#263238"></path><rect x="159.25" y="264.72" width="216.21" height="26.6" rx="11.07" style="fill:#00ACEE"></rect><path d="M250.83,273.29h.85v7.32h4.51v.74h-5.36Z" style="fill:#fff"></path><path d="M256.73,278.32a3.08,3.08,0,1,1,3.09,3.08A3,3,0,0,1,256.73,278.32Zm5.33,0a2.25,2.25,0,1,0-2.24,2.36A2.21,2.21,0,0,0,262.06,278.32Z" style="fill:#fff"></path><path d="M270.16,275.29v5.32c0,2.08-1,3-3,3a4.22,4.22,0,0,1-2.82-.93l.42-.62a3.56,3.56,0,0,0,2.38.83c1.53,0,2.23-.7,2.23-2.2v-.77a2.73,2.73,0,0,1-2.36,1.17,2.93,2.93,0,1,1,0-5.86,2.71,2.71,0,0,1,2.39,1.21v-1.17Zm-.8,2.88a2.3,2.3,0,1,0-2.3,2.22A2.16,2.16,0,0,0,269.36,278.17Z" style="fill:#fff"></path><path d="M275.27,273.38a.6.6,0,0,1,1.2,0,.6.6,0,0,1-1.2,0Zm.18,1.91h.82v6.06h-.82Z" style="fill:#fff"></path><path d="M284.12,277.84v3.51h-.82v-3.43a1.7,1.7,0,0,0-1.82-1.94,2,2,0,0,0-2.12,2.19v3.18h-.81v-6.06h.78v1.12a2.53,2.53,0,0,1,2.3-1.16A2.32,2.32,0,0,1,284.12,277.84Z" style="fill:#fff"></path></g></svg>